<?xml version="1.0" encoding="UTF-8" standalone="no"?>
<!-- Generator: Adobe Illustrator 18.1.1, SVG Export Plug-In . SVG Version: 6.00 Build 0)  -->

<svg
   xmlns:dc="http://purl.org/dc/elements/1.1/"
   xmlns:cc="http://creativecommons.org/ns#"
   xmlns:rdf="http://www.w3.org/1999/02/22-rdf-syntax-ns#"
   xmlns:svg="http://www.w3.org/2000/svg"
   xmlns="http://www.w3.org/2000/svg"
   xmlns:sodipodi="http://sodipodi.sourceforge.net/DTD/sodipodi-0.dtd"
   xmlns:inkscape="http://www.inkscape.org/namespaces/inkscape"
   version="1.1"
   id="Layer_1"
   x="0px"
   y="0px"
   viewBox="0 0 304.29999 88.499985"
   enable-background="new 0 0 792 612"
   xml:space="preserve"
   inkscape:version="0.91 r13725"
   sodipodi:docname="logo.svg"
   width="304.29999"
   height="88.499985"><metadata
     id="metadata53"><rdf:RDF><cc:Work
         rdf:about=""><dc:format>image/svg+xml</dc:format><dc:type
           rdf:resource="http://purl.org/dc/dcmitype/StillImage" /><dc:title></dc:title></cc:Work></rdf:RDF></metadata><defs
     id="defs51" /><sodipodi:namedview
     pagecolor="#ffffff"
     bordercolor="#666666"
     borderopacity="1"
     objecttolerance="10"
     gridtolerance="10"
     guidetolerance="10"
     inkscape:pageopacity="0"
     inkscape:pageshadow="2"
     inkscape:window-width="1600"
     inkscape:window-height="847"
     id="namedview49"
     showgrid="false"
     fit-margin-top="0"
     fit-margin-left="0"
     fit-margin-right="0"
     fit-margin-bottom="0"
     showborder="false"
     inkscape:zoom="0.38562092"
     inkscape:cx="156.98645"
     inkscape:cy="43.700045"
     inkscape:window-x="0"
     inkscape:window-y="29"
     inkscape:window-maximized="1"
     inkscape:current-layer="Layer_1" /><g
     id="g3"
     transform="translate(-244.2,-261.20001)"><rect
       x="244.2"
       y="261.20001"
       width="304.29999"
       height="25.799999"
       id="rect5" /><g
       id="g7"><rect
         x="370.79999"
         y="272.10001"
         width="19.5"
         height="4"
         id="rect9"
         style="fill:#ffffff" /><rect
         x="400.89999"
         y="272.10001"
         width="19.5"
         height="4"
         id="rect11"
         style="fill:#ffffff" /><rect
         x="431.10001"
         y="272.10001"
         width="19.5"
         height="4"
         id="rect13"
         style="fill:#ffffff" /><rect
         x="461.20001"
         y="272.10001"
         width="19.5"
         height="4"
         id="rect15"
         style="fill:#ffffff" /><rect
         x="491.39999"
         y="272.10001"
         width="19.5"
         height="4"
         id="rect17"
         style="fill:#ffffff" /><rect
         x="521.5"
         y="272.10001"
         width="19.5"
         height="4"
         id="rect19"
         style="fill:#ffffff" /></g><g
       id="g21"><rect
         x="250.3"
         y="272.10001"
         width="19.5"
         height="4"
         id="rect23"
         style="fill:#ffffff" /><rect
         x="280.5"
         y="272.10001"
         width="19.5"
         height="4"
         id="rect25"
         style="fill:#ffffff" /><rect
         x="310.60001"
         y="272.10001"
         width="19.5"
         height="4"
         id="rect27"
         style="fill:#ffffff" /><rect
         x="340.79999"
         y="272.10001"
         width="19.5"
         height="4"
         id="rect29"
         style="fill:#ffffff" /><rect
         x="370.89999"
         y="272.10001"
         width="19.5"
         height="4"
         id="rect31"
         style="fill:#ffffff" /></g></g><g
     id="g33"
     transform="translate(-244.2,-261.20001)"><path
       d="m 323.8,310.7 c -1.3,-1.3 -3.1,-2.3 -5.3,-3 -2.2,-0.7 -4.8,-1.1 -8,-1.1 -3.2,0 -5.9,0.3 -8.1,1 -2.2,0.7 -4,1.6 -5.4,2.9 -1.4,1.2 -2.4,2.7 -3,4.5 -0.6,1.7 -1,3.6 -1,5.7 l 9.8,0 c 0.3,-1.8 0.9,-3.2 2,-4.3 1.1,-1.1 2.8,-1.6 5.2,-1.6 2.1,0 3.7,0.4 4.9,1.1 1.2,0.7 1.8,1.7 1.8,3 0,1.4 -0.5,2.4 -1.4,3 -0.9,0.6 -2.7,1.1 -5.3,1.5 -2.6,0.4 -5.1,0.8 -7.3,1.3 -2.2,0.5 -4.2,1.2 -5.8,2.1 -1.6,1 -2.9,2.3 -3.8,4 -0.9,1.7 -1.4,4 -1.4,6.8 0,3.2 1.1,5.9 3.2,7.9 2.1,2 5.5,3 10.1,3 2.7,0 5.1,-0.4 7.1,-1.3 2.1,-0.8 3.7,-2 4.9,-3.4 0.1,1.4 0.3,2.5 0.6,3.6 l 9.7,0 0,-25.2 c 0,-2.5 -0.3,-4.7 -0.9,-6.7 -0.4,-1.8 -1.3,-3.5 -2.6,-4.8 z m -6.8,21.7 c 0,1.2 -0.3,2.3 -0.8,3.4 -0.5,1.1 -1.2,2 -2,2.8 -0.8,0.8 -1.8,1.4 -3,1.9 -1.2,0.5 -2.4,0.7 -3.8,0.7 -3.4,0 -5.1,-1.5 -5.1,-4.5 0,-1.7 0.6,-3.1 1.7,-4 1.1,-0.9 3.2,-1.7 6.2,-2.3 1.9,-0.4 3.4,-0.7 4.5,-1.1 1,-0.3 1.8,-0.8 2.4,-1.3 l -0.1,4.4 z"
       id="path35"
       inkscape:connector-curvature="0" /><path
       d="m 369.4,307.6 c -1,0.1 -2,0.4 -3,0.8 -1,0.4 -2,1 -2.9,1.8 -0.9,0.8 -1.9,1.8 -2.7,3.2 l 0,-4.7 -9.9,0 0,39.9 10.5,0 0,-20.8 c 0,-6.4 3.2,-9.6 9.6,-9.6 1,0 1.9,0.1 2.9,0.2 l 0,-10.9 -1.4,0 c -1.1,-0.1 -2.1,0 -3.1,0.1 z"
       id="path37"
       inkscape:connector-curvature="0" /><path
       d="m 411.3,313.2 c -1.8,-1.8 -3.9,-3.2 -6.4,-4.2 -2.5,-1 -5.3,-1.5 -8.4,-1.5 -3.2,0 -6,0.5 -8.5,1.5 -2.5,1 -4.7,2.4 -6.4,4.3 -1.8,1.8 -3.1,4.1 -4.1,6.7 -0.9,2.6 -1.4,5.5 -1.4,8.6 0,3.1 0.5,5.9 1.4,8.5 0.9,2.6 2.3,4.8 4,6.7 1.8,1.8 3.9,3.3 6.4,4.3 2.5,1 5.4,1.5 8.7,1.5 3.1,0 5.9,-0.5 8.4,-1.5 2.5,-1 4.6,-2.4 6.4,-4.3 1.8,-1.8 3.1,-4 4,-6.6 0.9,-2.6 1.4,-5.5 1.4,-8.6 0,-3.2 -0.5,-6.1 -1.4,-8.7 -1,-2.7 -2.4,-4.9 -4.1,-6.7 z m -14.8,27.5 c -6.4,0 -9.6,-4.1 -9.6,-12.2 0,-8.1 3.2,-12.1 9.6,-12.1 6.4,0 9.6,4 9.6,12.1 0.1,8.1 -3.1,12.2 -9.6,12.2 z"
       id="path39"
       inkscape:connector-curvature="0" /><path
       d="m 447,331.6 c 0,2.6 -0.7,4.8 -2.1,6.5 -1.4,1.7 -3.4,2.6 -6.1,2.6 -4.5,0 -6.7,-2.5 -6.7,-7.5 l 0,-24.6 -10.5,0 0,26.3 c 0,2.2 0.3,4.2 1,6 0.7,1.8 1.6,3.3 2.8,4.6 1.2,1.3 2.6,2.3 4.3,3 1.6,0.7 3.5,1.1 5.5,1.1 5.6,0 9.7,-2.2 12.4,-6.6 l 0,5.6 10,0 0,-39.9 -10.6,0 0,22.9 z"
       id="path41"
       inkscape:connector-curvature="0" /><path
       d="m 531.8,340 c -1.3,0.8 -2.9,1.2 -4.6,1.2 -2.6,0 -4.7,-0.9 -6.3,-2.7 -1.6,-1.8 -2.5,-4.2 -2.6,-7.2 l 27.5,0 c 0,-7.9 -1.6,-13.9 -4.7,-17.8 -3.2,-3.9 -7.8,-5.9 -14,-5.9 -3.1,0 -5.8,0.5 -8.2,1.4 -2.4,0.9 -4.4,2.3 -6,4.1 -1.6,1.8 -2.9,3.9 -3.8,6.4 -0.9,2.5 -1.3,5.3 -1.3,8.3 0,14.5 6.6,21.7 19.9,21.7 4.3,0 7.9,-1.1 11,-3.3 3.1,-2.2 5.2,-5.4 6.5,-9.5 l -10.9,0 c -0.3,1.4 -1.1,2.5 -2.5,3.3 z m -10.5,-21.8 c 1.5,-1.5 3.4,-2.3 5.5,-2.3 1,0 2,0.2 3,0.5 1,0.4 1.8,0.9 2.6,1.6 0.8,0.7 1.4,1.6 1.8,2.8 0.5,1.1 0.7,2.4 0.8,3.9 l -16.3,0 c 0.2,-2.8 1.1,-5 2.6,-6.5 z"
       id="path43"
       inkscape:connector-curvature="0" /><path
       d="m 265,307.5 -1,0 0,-10.6 -10.5,0 0,10.6 -8.9,0 0,7.1 8.9,0 0,18 c 0,2.2 0.3,4.2 0.9,6.2 0.6,1.9 1.5,3.6 2.9,5.1 1.3,1.5 3,2.6 5.1,3.5 2,0.9 4.5,1.3 7.4,1.3 2.8,0 5.2,-0.4 7.2,-1.3 2,-0.9 3.7,-2 5,-3.5 1.3,-1.5 2.3,-3.2 2.9,-5.1 0.6,-1.9 0.9,-3.9 0.9,-6 l 0,-2.3 -9.7,0 0,1.4 c 0,2.5 -0.5,4.4 -1.5,5.8 -1,1.4 -2.5,2 -4.6,2 -2.1,0 -3.7,-0.7 -4.6,-2.1 -0.9,-1.4 -1.4,-3.3 -1.4,-5.9 l 0,-16.4 21.9,0 0,-7.5 -20.9,0 0,-0.3 z"
       id="path45"
       inkscape:connector-curvature="0" /><path
       d="m 482.1,308.5 -1,0 0,-10.6 -10.5,0 0,10.6 -8.9,0 0,7.1 8.9,0 0,18 c 0,2.2 0.3,4.2 0.9,6.2 0.6,1.9 1.5,3.6 2.9,5.1 1.3,1.5 3,2.6 5.1,3.5 2,0.9 4.5,1.3 7.4,1.3 2.8,0 5.2,-0.4 7.2,-1.3 2,-0.9 3.7,-2 5,-3.5 1.3,-1.5 2.3,-3.2 2.9,-5.1 0.6,-1.9 0.9,-3.9 0.9,-6 l 0,-2.3 -9.7,0 0,1.4 c 0,2.5 -0.5,4.4 -1.5,5.8 -1,1.4 -2.5,2 -4.6,2 -2.1,0 -3.7,-0.7 -4.6,-2.1 -0.9,-1.4 -1.4,-3.3 -1.4,-5.9 l 0,-16.4 21.9,0 0,-7.5 -20.9,0 0,-0.3 z"
       id="path47"
       inkscape:connector-curvature="0" /></g></svg>